<svg id="Layer_1" enable-background="new 0 0 512 512" height="512" viewBox="0 0 512 512" width="512" xmlns="http://www.w3.org/2000/svg"><g><g><path d="m298.199 156.223h55.342v179.114h-55.342z" fill="#af5c2e"/><path d="m329.74 156.223h23.802v179.114h-23.802z" fill="#995028"/><path d="m160.227 156.223h53.575v179.114h-53.575z" fill="#af5c2e"/><path d="m160.227 156.223h23.802v179.114h-23.802z" fill="#d87544"/><path d="m364.648 431h-217.296v-47.547c0-33.092 26.826-59.918 59.918-59.918h97.46c33.092 0 59.918 26.826 59.918 59.918z" fill="#ffdbb8"/><path d="m304.73 323.534h-23.644c33.092 0 59.918 26.826 59.918 59.918v47.548h23.644v-47.547c0-33.093-26.826-59.919-59.918-59.919z" fill="#f4ad7d"/><path d="m207.27 323.534h23.644c-33.092 0-59.918 26.826-59.918 59.918v47.548h-23.644v-47.547c0-33.093 26.826-59.919 59.918-59.919z" fill="#ffe5cc"/><path d="m304.73 323.534h-17.311-64.437-15.712c-33.092 0-59.918 26.826-59.918 59.918v14.691h50.16v32.857h116.978v-32.856h50.16v-14.691c-.002-33.092-26.828-59.919-59.92-59.919z" fill="#fff"/><path d="m364.648 398.144v-14.691c0-33.092-26.826-59.918-59.918-59.918h-17.311-6.333c33.092 0 59.918 26.826 59.918 59.918v14.691z" fill="#e6e6e6"/><path d="m294.387 323.534h-76.775c2.336 19.131 18.626 33.952 38.387 33.952s36.052-14.821 38.388-33.952z" fill="#eaa178"/><path d="m304.73 323.534h-14.687v57.956h-68.087v-57.956h-14.686c-3.324 0-6.582.283-9.759.804v73.806 32.856h116.978v-106.662c-3.177-.521-6.434-.804-9.759-.804z" fill="#57d7ff"/><path d="m225.528 396.328h60.944v21.407h-60.944z" fill="#ffc200"/><path d="m256 328.544c-43.493 0-78.751-35.258-78.751-78.75v-96.25h157.501v96.25c0 43.492-35.257 78.75-78.75 78.75z" fill="#ffdbb8"/><path d="m310.948 153.544v96.25c0 39.447-29.004 72.118-66.849 77.855 3.881.588 7.855.896 11.901.896 43.493 0 78.75-35.258 78.75-78.75v-96.25h-23.802z" fill="#f4ad7d"/><path d="m201.051 153.544v96.25c0 39.447 29.004 72.118 66.849 77.855-3.881.588-7.855.896-11.901.896-43.493 0-78.751-35.258-78.751-78.75v-96.25h23.803z" fill="#ffe5cc"/><path d="m255.999 267.293h-35c.001 14.449 14.546 28.897 35.001 28.897v-.001.001c20.456 0 35.002-14.448 35.002-28.897z" fill="#e50707"/><path d="m224.828 280.116h62.344c2.197-3.563 3.516-7.449 3.778-11.373.015-.483.051-.966.051-1.449h-35.003-35c0 .483.036.965.051 1.448.263 3.924 1.583 7.811 3.779 11.374z" fill="#fff"/><path d="m291.002 162.293-46.682 23.027c-20.779 10.25-44.394 13.237-67.07 8.484l-17.023 11.591v-59.072c1.406-31.006 24.659-61.092 62.589-64.219 22.279-1.837 46.369-1.4 70.276 1.438 36.977 4.389 60.45 31.775 60.45 64.004v59.686l-18.791-13.428z" fill="#af5c2e"/><path d="m148.71 228.419c0 15.762 12.778 28.539 28.539 28.539v-57.079c-15.761 0-28.539 12.778-28.539 28.54z" fill="#f4ad7d"/><path d="m363.29 228.419c0 15.762-12.778 28.539-28.54 28.539v-57.079c15.762 0 28.54 12.778 28.54 28.54z" fill="#f4ad7d"/><path d="m220.999 239.232c-6.185 0-11.199-5.014-11.199-11.199v-8.823c0-6.185 5.014-11.199 11.199-11.199 6.185 0 11.199 5.014 11.199 11.199v8.823c0 6.185-5.014 11.199-11.199 11.199z" fill="#402943"/><path d="m291.001 239.232c-6.185 0-11.199-5.014-11.199-11.199v-8.823c0-6.185 5.014-11.199 11.199-11.199 6.185 0 11.199 5.014 11.199 11.199v8.823c0 6.185-5.014 11.199-11.199 11.199z" fill="#402943"/><path d="m293.092 83.542c-18.476-2.193-37.052-2.936-54.827-2.32 10.271.338 20.661 1.09 31.025 2.32 36.977 4.389 60.45 31.775 60.45 64.004v42.649l5.011 3.609 18.791 13.428v-59.686c0-32.229-23.474-59.614-60.45-64.004z" fill="#995028"/><path d="m177.249 146.323c1.407-31.006 24.659-61.092 62.589-64.219 6.218-.513 12.588-.829 19.045-.984-12.325-.297-24.445.026-36.068.984-37.93 3.127-61.182 33.213-62.589 64.219v59.072l17.023-11.591z" fill="#d87544"/></g><g fill="#402943"><path d="m286.472 392.328h-60.943c-2.209 0-4 1.791-4 4v21.407c0 2.209 1.791 4 4 4h60.943c2.209 0 4-1.791 4-4v-21.407c0-2.209-1.791-4-4-4zm-4 21.407h-52.943v-13.407h52.943z"/><path d="m256 300.188h.001c10.543 0 20.418-3.559 27.804-10.019 7.115-6.225 11.196-14.563 11.196-22.877 0-2.209-1.791-4-4-4h-70.003c-1.061 0-2.079.422-2.829 1.172s-1.171 1.768-1.171 2.829c.002 15.886 15.674 32.895 39.002 32.895zm0-8c-10.609 0-19.221-4.217-24.653-10.075h49.307c-5.431 5.858-14.044 10.075-24.654 10.075zm30.554-20.896c-.518 2.332-1.478 4.639-2.832 6.822h-55.443c-1.354-2.183-2.314-4.49-2.832-6.822z"/><path d="m350.915 339.335h2.626c2.209 0 4-1.791 4-4v-83.722c6.011-5.907 9.748-14.122 9.748-23.195 0-9.074-3.737-17.289-9.749-23.196v-57.676c0-35.551-26.309-63.504-63.978-67.975-23.78-2.823-48.357-3.325-71.075-1.452-41.627 3.431-64.84 36.818-66.256 68.023-.002.06-.004.121-.004.181v57.286c-7.038 5.973-11.517 14.875-11.517 24.808s4.479 18.834 11.517 24.808v82.11c0 2.209 1.791 4 4 4h.858c-10.973 11.481-17.734 27.02-17.734 44.118v47.547c0 2.209 1.791 4 4 4h217.297c2.209 0 4-1.791 4-4v-47.548c0-17.097-6.761-32.636-17.733-44.117zm8.375-110.916c0 12.169-8.904 22.298-20.54 24.213v-2.839-45.588c11.636 1.916 20.54 12.044 20.54 24.214zm-195.063-82.005c1.298-27.685 21.936-57.275 58.917-60.323 22.193-1.829 46.218-1.337 69.475 1.424 33.515 3.978 56.921 28.664 56.921 60.031v51.903c-.013-.007-.026-.013-.039-.02l-12.413-8.871-43.748-31.511c-.693-.5-1.514-.754-2.338-.754-.604 0-1.209.136-1.77.413l-46.682 23.027c-19.882 9.807-42.781 12.704-64.479 8.156-1.064-.223-2.173-.003-3.072.609l-10.771 7.334v-51.418zm91.773 207.072c-12.438 0-23.852-6.652-30.044-17.406v-8.546h1.386c.079 0 .153-.019.231-.023 8.868 3.254 18.443 5.031 28.426 5.031 9.982 0 19.558-1.777 28.426-5.031.078.005.152.023.231.023h1.386v8.546c-6.19 10.754-17.604 17.406-30.042 17.406zm30.043-4.399v28.403h-60.087v-28.404c7.879 7.823 18.608 12.399 30.044 12.399 11.436.001 22.164-4.575 30.043-12.398zm-30.043-24.546c-41.217 0-74.749-33.533-74.749-74.75v-49.914-1.283c21.985 3.557 44.826.184 64.839-9.688l44.526-21.963 40.135 28.908v4.027 49.914c-.001 41.217-33.533 74.749-74.751 74.749zm-103.289-96.124c0-12.169 8.904-22.298 20.54-24.214v45.588 2.839c-11.636-1.915-20.54-12.044-20.54-24.213zm40.8 198.583h-42.16v-24.856h42.16zm0-32.856h-42.16v-10.691c0-26.087 17.958-48.055 42.16-54.201zm3.163-73.715c-9.689 1.624-18.64 5.434-26.338 10.906h-6.108v-73.107c3.046 1.336 6.332 2.223 9.776 2.566 3.292 24.657 17.474 45.902 37.545 58.74h-4.279c-3.581 0-7.09.311-10.512.88-.028.005-.056.009-.084.015zm21.282 7.105v49.956h-16.445v-49.66c1.894-.195 3.815-.296 5.759-.296zm92.533 99.466h-108.978v-41.51h20.445 68.087 20.446zm0-49.51h-16.446v-49.956h10.688c1.944 0 3.865.101 5.759.296v49.66zm4.753-57.076c-3.422-.569-6.931-.88-10.512-.88h-4.279c20.072-12.838 34.253-34.083 37.545-58.74 4.123-.41 8.017-1.6 11.544-3.408v73.949h-7.877c-7.698-5.472-16.649-9.282-26.337-10.906-.027-.006-.055-.01-.084-.015zm45.406 106.586h-42.159v-24.856h42.159zm0-32.856h-42.159v-64.892c24.201 6.147 42.159 28.114 42.159 54.201z"/></g></g></svg>